<svg width="24" height="24" viewBox="0 0 24 24" fill="none" xmlns="http://www.w3.org/2000/svg">
<path d="M11 20.5C11 21.3284 11.6716 22 12.5 22V22C13.3284 22 14 21.3284 14 20.5V20.1667C14 19.3382 13.3284 18.6667 12.5 18.6667V18.6667C11.6716 18.6667 11 19.3382 11 20.1667V20.5ZM11 12.1667C11 12.9951 11.6716 13.6667 12.5 13.6667V13.6667C13.3284 13.6667 14 12.9951 14 12.1667V11.8333C14 11.0049 13.3284 10.3333 12.5 10.3333V10.3333C11.6716 10.3333 11 11.0049 11 11.8333V12.1667ZM12.5 2C11.6716 2 11 2.67157 11 3.5V3.83333C11 4.66176 11.6716 5.33333 12.5 5.33333V5.33333C13.3284 5.33333 14 4.66176 14 3.83333V3.5C14 2.67157 13.3284 2 12.5 2V2Z" fill="black"/>
</svg>
