<svg width="65" height="24" viewBox="0 0 65 24" fill="none" xmlns="http://www.w3.org/2000/svg">
<path d="M36.7433 0.397146C34.8894 0.829981 33.9688 1.81186 33.9597 3.36593C33.9492 5.17555 34.9577 6.00652 38.1914 6.8539C39.7632 7.26548 40.2974 7.97889 39.5539 8.67186C38.7101 9.4579 37.0588 8.94813 36.8509 7.83658C36.7478 7.28189 36.7529 7.2835 35.0211 7.38034L33.4862 7.46589L33.5601 7.95172C33.6738 8.70064 34.2886 9.85684 34.8126 10.3077C36.3654 11.6431 40.6416 11.5061 42.1055 10.0731L42.5337 9.65401L42.6159 10.1412C42.917 11.9336 44.728 13.6176 46.8116 14.0429L47.4806 14.1798L47.0853 14.7003C45.7809 16.4177 45.744 19.9299 47.0115 21.754C48.9513 24.545 54.4099 24.464 56.2059 21.6179L56.5402 21.0882V23.6145H65V20.8983H59.9477V12.9851H56.5402L56.5335 14.1957C56.5276 15.1846 56.5011 15.364 56.3868 15.1754C55.7394 14.108 54.4786 13.2211 53.2427 12.9647L52.5766 12.8262L53.2526 12.3156C55.3557 10.7268 56.6654 7.82824 56.329 5.50777C55.4445 -0.590385 46.7056 -0.684807 43.377 5.36708C43.1624 5.75661 42.9796 6.08803 42.9705 6.10336C42.9614 6.11869 42.6619 5.84619 42.3044 5.4989C41.563 4.77715 40.9676 4.51298 38.9435 4.00913C37.0602 3.53998 36.6748 3.21098 37.3077 2.61243C37.9099 2.04348 39.221 2.41202 39.5162 3.23357C39.6894 3.71483 39.6578 3.71026 41.6599 3.5771L42.8177 3.49989L42.7438 3.03612C42.4021 0.887549 39.7118 -0.295821 36.7425 0.397953L36.7433 0.397146ZM0.730364 5.78028V11.0945H4.13784V6.8426H4.48415C5.03065 6.8426 5.36118 7.24665 6.41484 9.20476L7.40026 11.0348L9.29482 11.0674C10.3367 11.0854 11.1886 11.0682 11.1886 11.0294C11.1886 10.4309 9.06519 6.9771 8.47586 6.61717L8.15283 6.41971L8.80478 6.077C11.2218 4.80512 10.7641 1.1614 8.11537 0.590294C7.78109 0.518469 6.08833 0.464667 4.13195 0.464667H0.730364V5.77894V5.78028ZM52.3205 1.39113C57.6383 2.78621 57.1515 10.2856 51.5647 13.0236C45.8727 15.8132 40.8 11.2336 43.5055 5.74827C45.084 2.54787 49.1215 0.552095 52.3197 1.39194L52.3205 1.39113ZM6.48576 2.86127C7.68261 3.4695 6.88855 4.59234 5.19337 4.68918L4.13811 4.74971V2.70928L5.16634 2.71089C5.75486 2.7117 6.31876 2.77599 6.48576 2.86073V2.86127ZM50.4396 3.80091C49.5039 4.05055 48.5525 5.00096 48.5517 5.6864C48.5501 6.80628 49.4408 7.21006 50.8421 6.72531C51.6993 6.42886 51.9177 6.42886 52.0764 6.72612C52.3451 7.23158 51.4643 7.74673 50.9505 7.38438C50.6922 7.2028 49.74 7.77552 49.7303 8.11824C49.7153 8.6342 51.0144 8.82949 51.8101 8.43082C54.3371 7.16514 53.6195 4.44815 50.9986 5.35686C49.9509 5.72002 49.7258 5.73589 49.7258 5.44375C49.7258 4.98536 50.4385 4.65394 50.7495 4.96626C50.8766 5.09404 51.8401 4.45192 51.8401 4.23913C51.8401 3.92143 50.9866 3.6535 50.4385 3.80038L50.4396 3.80091ZM46.6467 6.34923C46.086 6.75705 46.0595 6.65106 47.0877 8.11824C47.7207 9.02076 47.964 9.46651 47.9399 9.67768C47.8979 10.0387 47.4951 10.1347 47.2119 9.85092C47.0321 9.67015 46.9852 9.68441 46.5594 10.0513C45.4838 10.9775 47.1188 11.7725 48.3336 10.9146C49.6682 9.97198 49.6704 9.38715 48.3435 7.43953C47.3144 5.9285 47.2671 5.89838 46.6462 6.35004L46.6467 6.34923ZM3.51613 12.8695C1.59374 13.1743 0.468354 14.3041 0.453366 15.9442C0.438379 17.6177 1.51773 18.5711 4.19136 19.2436C5.83007 19.656 6.36961 19.9708 6.36961 20.5131C6.36961 22.0405 3.64941 21.8877 3.36171 20.3444C3.26081 19.8059 3.27366 19.8088 1.53861 19.9032L0 19.9872L0.07681 20.4714C0.427674 22.6912 1.71177 23.615 4.57274 23.7051C6.84144 23.7762 7.62132 23.5553 8.61182 22.5597L9.29 21.878L9.53916 22.2162C10.9806 24.1756 15.8499 24.3075 17.4487 22.4295C17.9163 21.881 18.4408 20.8475 18.4944 20.3716C18.5321 20.0364 18.5214 20.0305 17.0965 19.596L15.6612 19.1581L15.4685 19.7408C14.812 21.7269 12.3335 21.7494 11.7891 19.7749C11.6039 19.1037 11.6264 17.5007 11.8312 16.8099C12.3249 15.1402 14.4106 14.7975 15.2568 16.2477C15.6098 16.853 15.5151 16.8417 17.1169 16.4777C18.6418 16.1312 18.5762 16.1925 18.2286 15.4396C16.8495 12.4571 12.2136 11.7574 9.75541 14.1594L9.06974 14.8297L8.78525 14.3418C8.07629 13.125 5.83997 12.5001 3.51774 12.8695H3.51613ZM35.9792 12.8724C34.6777 13.0995 33.392 13.9226 32.6657 14.993C32.4714 15.2798 32.4663 15.2564 32.4601 14.1357L32.454 12.9841H29.0465V16.6453H25.639V12.9841H22.2315V23.6134H25.639V19.3615H29.0465V23.6134H32.454V21.2104L32.822 21.768C34.3531 24.0906 39.0883 24.4984 41.2432 22.4927C43.737 20.1723 43.2478 14.8935 40.4039 13.4349C39.3064 12.8719 37.3802 12.6268 35.9787 12.8714L35.9792 12.8724ZM5.42675 15.0501C5.62319 15.1523 5.85362 15.4291 5.9786 15.7137L6.19324 16.2025L8.48898 16.0914L8.41377 16.6937C8.31448 17.4905 8.27006 17.5206 7.61142 17.2279C7.30123 17.0902 6.43331 16.8231 5.68153 16.6332C3.90286 16.1853 3.68153 16.0892 3.59053 15.7253C3.42193 15.0519 4.59843 14.6191 5.42782 15.0503L5.42675 15.0501ZM37.9942 15.4676C39.7343 15.9534 40.0868 19.9678 38.473 20.9225C37.2678 21.6351 35.7429 21.0285 35.3853 19.6931C34.6748 17.0399 35.9912 14.9086 37.9942 15.4676ZM52.2 15.4646C54.2217 16.029 54.1805 20.5957 52.1489 21.1458C50.5156 21.5875 49.4287 20.4466 49.437 18.2994C49.4461 16.0683 50.4976 14.9893 52.2003 15.4651L52.2 15.4646Z" fill="black"/>
</svg>
