<svg width="30" height="31" viewBox="0 0 30 31" fill="currentColor" stroke="currentColor" xmlns="http://www.w3.org/2000/svg">
<path d="M15 3C8.1 3 2.5 8.6 2.5 15.5C2.5 22.4 8.1 28 15 28C21.9 28 27.5 22.4 27.5 15.5C27.5 8.6 21.9 3 15 3ZM15 6.75C17.075 6.75 18.75 8.425 18.75 10.5C18.75 12.575 17.075 14.25 15 14.25C12.925 14.25 11.25 12.575 11.25 10.5C11.25 8.425 12.925 6.75 15 6.75ZM15 24.5C11.875 24.5 9.1125 22.9 7.5 20.475C7.5375 17.9875 12.5 16.625 15 16.625C17.4875 16.625 22.4625 17.9875 22.5 20.475C20.8875 22.9 18.125 24.5 15 24.5Z" fill="currentColor"/>
</svg>
